<svg width="128" height="128" xmlns="http://www.w3.org/2000/svg" clip-rule="evenodd" fill-rule="evenodd" stroke-linecap="round" stroke-linejoin="round" stroke-miterlimit="1.5"><path fill="none" d="M0 0h128v128H0z"/><circle cx="704.656" cy="16" r="14" fill-opacity=".75" stroke="#000" stroke-width="1.18" transform="translate(-2332.72 9.58) scale(3.40126)"/><path d="M72.364 105.922l6.74 8.616-1.104 8.84c-5.188 1.432-8.36 1.816-14 1.816-33.776 0-61.196-27.42-61.196-61.192C2.804 30.226 30.224 2.806 64 2.806c33.776 0 61.196 27.42 61.196 61.196 0 10.248-1.132 16.272-5.592 24.76l-9.536.34-6.78-8.664c3.184-5.992 3.592-9.188 3.592-16.436 0-23.668-19.212-42.884-42.88-42.884-23.668 0-42.88 19.216-42.88 42.884 0 23.664 19.212 42.88 42.88 42.88 3.676 0 4.956-.088 8.364-.96z" fill="#fff" stroke="#000" stroke-width="4"/><path d="M64.001 64l-15.999 9.418-11.75.059-.251 26.522M64.001 64l-15.999-9.418-11.75-.059-.251-26.522" fill="none" stroke="#e88430" stroke-width="9.9568896" stroke-linejoin="bevel"/><path d="M63.999 64l15.999 9.418 11.75.059.251 26.522M63.999 64l15.999-9.418 11.75-.059.251-26.522" fill="none" stroke="#e88430" stroke-width="9.9568896" stroke-linejoin="bevel"/><circle cx="704.918" cy="16.262" r="16.262" fill="#e88430" transform="matrix(.73792 0 0 .73792 -484.176 16)"/><circle cx="704.918" cy="16.262" r="16.262" fill="#e88430" transform="matrix(.73792 0 0 .73792 -428.176 16)"/><circle cx="704.918" cy="16.262" r="16.262" fill="#e88430" transform="matrix(.73792 0 0 .73792 -484.176 88)"/><circle cx="704.918" cy="16.262" r="16.262" fill="#e88430" transform="matrix(.98354 0 0 .98354 -599.9 84.626)"/><g transform="translate(-.166 -52.536) scale(4.23168)"><circle cx="22.114" cy="36.193" r="3.21" fill="#fff"/><clipPath id="prefix__a"><circle cx="22.114" cy="36.193" r="3.21"/></clipPath></g></svg>